<mxfile modified="2021-08-29T08:24:57.372Z" host="app.diagrams.net" agent="5.0 (Windows NT 10.0; Win64; x64) AppleWebKit/537.36 (KHTML, like Gecko) Chrome/92.0.4515.159 Safari/537.36" etag="heh2FXQNGxdCIMoyZvQF" version="15.0.3" type="github">
  <diagram id="Ht1M8jgEwFfnCIfOTk4-" name="Page-1">
    <mxGraphModel dx="1202" dy="513" grid="1" gridSize="10" guides="1" tooltips="1" connect="1" arrows="1" fold="1" page="1" pageScale="1" pageWidth="1169" pageHeight="827" math="0" shadow="0">
      <root>
        <mxCell id="0" />
        <mxCell id="1" parent="0" />
        <mxCell id="UEzPUAAOIrF-is8g5C7q-74" value="AWS Cloud Security" style="points=[[0,0],[0.25,0],[0.5,0],[0.75,0],[1,0],[1,0.25],[1,0.5],[1,0.75],[1,1],[0.75,1],[0.5,1],[0.25,1],[0,1],[0,0.75],[0,0.5],[0,0.25]];outlineConnect=0;gradientColor=none;html=1;whiteSpace=wrap;fontSize=12;fontStyle=0;shape=mxgraph.aws4.group;grIcon=mxgraph.aws4.group_aws_cloud_alt;strokeColor=#232F3E;fillColor=none;verticalAlign=top;align=left;spacingLeft=30;fontColor=#232F3E;dashed=0;labelBackgroundColor=#ffffff;shadow=1;" parent="1" vertex="1">
          <mxGeometry x="240" y="160" width="820" height="590" as="geometry" />
        </mxCell>
        <mxCell id="SFy-r6-ZwJ_fSL5g5nnQ-29" value="" style="fillColor=none;strokeColor=#DD3522;verticalAlign=top;fontStyle=0;fontColor=#DD3522;" vertex="1" parent="1">
          <mxGeometry x="240" y="29.5" width="250" height="90.5" as="geometry" />
        </mxCell>
        <mxCell id="UEzPUAAOIrF-is8g5C7q-107" value="" style="rounded=0;whiteSpace=wrap;html=1;labelBackgroundColor=none;fillColor=none;dashed=1;" parent="1" vertex="1">
          <mxGeometry x="270" y="200" width="370" height="400" as="geometry" />
        </mxCell>
        <mxCell id="SFy-r6-ZwJ_fSL5g5nnQ-14" style="edgeStyle=orthogonalEdgeStyle;rounded=0;orthogonalLoop=1;jettySize=auto;html=1;entryX=0;entryY=0.5;entryDx=0;entryDy=0;" edge="1" parent="1" source="SFy-r6-ZwJ_fSL5g5nnQ-13">
          <mxGeometry relative="1" as="geometry">
            <mxPoint x="239" y="80" as="targetPoint" />
          </mxGeometry>
        </mxCell>
        <mxCell id="SFy-r6-ZwJ_fSL5g5nnQ-13" value="&lt;font style=&quot;font-size: 14px&quot;&gt;Internet&amp;nbsp;&lt;/font&gt;" style="outlineConnect=0;fontColor=#232F3E;gradientColor=none;fillColor=#232F3E;strokeColor=none;dashed=0;verticalLabelPosition=bottom;verticalAlign=top;align=center;html=1;fontSize=12;fontStyle=0;aspect=fixed;pointerEvents=1;shape=mxgraph.aws4.internet;" vertex="1" parent="1">
          <mxGeometry x="80" y="55.5" width="78" height="48" as="geometry" />
        </mxCell>
        <mxCell id="SFy-r6-ZwJ_fSL5g5nnQ-16" value="Anti-DDOS" style="outlineConnect=0;fontColor=#232F3E;gradientColor=none;fillColor=#FF5252;strokeColor=none;dashed=0;verticalLabelPosition=bottom;verticalAlign=top;align=center;html=1;fontSize=12;fontStyle=0;aspect=fixed;pointerEvents=1;shape=mxgraph.aws4.shield_shield_advanced;" vertex="1" parent="1">
          <mxGeometry x="250" y="43.5" width="50.71" height="56.5" as="geometry" />
        </mxCell>
        <mxCell id="SFy-r6-ZwJ_fSL5g5nnQ-17" value="WAF" style="points=[[0,0,0],[0.25,0,0],[0.5,0,0],[0.75,0,0],[1,0,0],[0,1,0],[0.25,1,0],[0.5,1,0],[0.75,1,0],[1,1,0],[0,0.25,0],[0,0.5,0],[0,0.75,0],[1,0.25,0],[1,0.5,0],[1,0.75,0]];outlineConnect=0;fontColor=#232F3E;gradientColor=#F54749;gradientDirection=north;fillColor=#C7131F;strokeColor=#ffffff;dashed=0;verticalLabelPosition=bottom;verticalAlign=top;align=center;html=1;fontSize=12;fontStyle=0;aspect=fixed;shape=mxgraph.aws4.resourceIcon;resIcon=mxgraph.aws4.waf;" vertex="1" parent="1">
          <mxGeometry x="335" y="43.5" width="56.5" height="56.5" as="geometry" />
        </mxCell>
        <mxCell id="SFy-r6-ZwJ_fSL5g5nnQ-20" value="Firewall" style="points=[[0,0,0],[0.25,0,0],[0.5,0,0],[0.75,0,0],[1,0,0],[0,1,0],[0.25,1,0],[0.5,1,0],[0.75,1,0],[1,1,0],[0,0.25,0],[0,0.5,0],[0,0.75,0],[1,0.25,0],[1,0.5,0],[1,0.75,0]];outlineConnect=0;fontColor=#232F3E;gradientColor=#F54749;gradientDirection=north;fillColor=#C7131F;strokeColor=#ffffff;dashed=0;verticalLabelPosition=bottom;verticalAlign=top;align=center;html=1;fontSize=12;fontStyle=0;aspect=fixed;shape=mxgraph.aws4.resourceIcon;resIcon=mxgraph.aws4.firewall_manager;" vertex="1" parent="1">
          <mxGeometry x="423.5" y="43.5" width="56.5" height="56.5" as="geometry" />
        </mxCell>
        <mxCell id="SFy-r6-ZwJ_fSL5g5nnQ-21" value="Firewall" style="points=[[0,0,0],[0.25,0,0],[0.5,0,0],[0.75,0,0],[1,0,0],[0,1,0],[0.25,1,0],[0.5,1,0],[0.75,1,0],[1,1,0],[0,0.25,0],[0,0.5,0],[0,0.75,0],[1,0.25,0],[1,0.5,0],[1,0.75,0]];outlineConnect=0;fontColor=#232F3E;gradientColor=#F54749;gradientDirection=north;fillColor=#C7131F;strokeColor=#ffffff;dashed=0;verticalLabelPosition=bottom;verticalAlign=top;align=center;html=1;fontSize=12;fontStyle=0;aspect=fixed;shape=mxgraph.aws4.resourceIcon;resIcon=mxgraph.aws4.firewall_manager;" vertex="1" parent="1">
          <mxGeometry x="423.5" y="43.5" width="56.5" height="56.5" as="geometry" />
        </mxCell>
        <mxCell id="SFy-r6-ZwJ_fSL5g5nnQ-51" value="" style="edgeStyle=orthogonalEdgeStyle;rounded=0;orthogonalLoop=1;jettySize=auto;html=1;" edge="1" parent="1" source="SFy-r6-ZwJ_fSL5g5nnQ-23" target="SFy-r6-ZwJ_fSL5g5nnQ-49">
          <mxGeometry relative="1" as="geometry" />
        </mxCell>
        <mxCell id="SFy-r6-ZwJ_fSL5g5nnQ-23" value="Firewall" style="points=[[0,0,0],[0.25,0,0],[0.5,0,0],[0.75,0,0],[1,0,0],[0,1,0],[0.25,1,0],[0.5,1,0],[0.75,1,0],[1,1,0],[0,0.25,0],[0,0.5,0],[0,0.75,0],[1,0.25,0],[1,0.5,0],[1,0.75,0]];outlineConnect=0;fontColor=#232F3E;gradientColor=#F54749;gradientDirection=north;fillColor=#C7131F;strokeColor=#ffffff;dashed=0;verticalLabelPosition=bottom;verticalAlign=top;align=center;html=1;fontSize=12;fontStyle=0;aspect=fixed;shape=mxgraph.aws4.resourceIcon;resIcon=mxgraph.aws4.firewall_manager;flipH=1;" vertex="1" parent="1">
          <mxGeometry x="423.5" y="43.5" width="56.5" height="56.5" as="geometry" />
        </mxCell>
        <mxCell id="SFy-r6-ZwJ_fSL5g5nnQ-27" value="Anti-DDOS" style="outlineConnect=0;fontColor=#232F3E;gradientColor=none;fillColor=#FF5252;strokeColor=none;dashed=0;verticalLabelPosition=bottom;verticalAlign=top;align=center;html=1;fontSize=12;fontStyle=0;aspect=fixed;pointerEvents=1;shape=mxgraph.aws4.shield_shield_advanced;" vertex="1" parent="1">
          <mxGeometry x="250" y="43.5" width="50.71" height="56.5" as="geometry" />
        </mxCell>
        <mxCell id="SFy-r6-ZwJ_fSL5g5nnQ-28" value="WAF" style="points=[[0,0,0],[0.25,0,0],[0.5,0,0],[0.75,0,0],[1,0,0],[0,1,0],[0.25,1,0],[0.5,1,0],[0.75,1,0],[1,1,0],[0,0.25,0],[0,0.5,0],[0,0.75,0],[1,0.25,0],[1,0.5,0],[1,0.75,0]];outlineConnect=0;fontColor=#232F3E;gradientColor=#F54749;gradientDirection=north;fillColor=#C7131F;strokeColor=#ffffff;dashed=0;verticalLabelPosition=bottom;verticalAlign=top;align=center;html=1;fontSize=12;fontStyle=0;aspect=fixed;shape=mxgraph.aws4.resourceIcon;resIcon=mxgraph.aws4.waf;" vertex="1" parent="1">
          <mxGeometry x="335" y="43.5" width="56.5" height="56.5" as="geometry" />
        </mxCell>
        <mxCell id="SFy-r6-ZwJ_fSL5g5nnQ-32" value="Anti-DDOS" style="outlineConnect=0;fontColor=#232F3E;gradientColor=none;fillColor=#FF5252;strokeColor=none;dashed=0;verticalLabelPosition=bottom;verticalAlign=top;align=center;html=1;fontSize=12;fontStyle=0;aspect=fixed;pointerEvents=1;shape=mxgraph.aws4.shield_shield_advanced;" vertex="1" parent="1">
          <mxGeometry x="250" y="43.5" width="50.71" height="56.5" as="geometry" />
        </mxCell>
        <mxCell id="SFy-r6-ZwJ_fSL5g5nnQ-33" value="WAF" style="points=[[0,0,0],[0.25,0,0],[0.5,0,0],[0.75,0,0],[1,0,0],[0,1,0],[0.25,1,0],[0.5,1,0],[0.75,1,0],[1,1,0],[0,0.25,0],[0,0.5,0],[0,0.75,0],[1,0.25,0],[1,0.5,0],[1,0.75,0]];outlineConnect=0;fontColor=#232F3E;gradientColor=#F54749;gradientDirection=north;fillColor=#C7131F;strokeColor=#ffffff;dashed=0;verticalLabelPosition=bottom;verticalAlign=top;align=center;html=1;fontSize=12;fontStyle=0;aspect=fixed;shape=mxgraph.aws4.resourceIcon;resIcon=mxgraph.aws4.waf;" vertex="1" parent="1">
          <mxGeometry x="335" y="43.5" width="56.5" height="56.5" as="geometry" />
        </mxCell>
        <mxCell id="SFy-r6-ZwJ_fSL5g5nnQ-34" value="Anti-DDOS" style="outlineConnect=0;fontColor=#232F3E;gradientColor=none;fillColor=#FF5252;strokeColor=none;dashed=0;verticalLabelPosition=bottom;verticalAlign=top;align=center;html=1;fontSize=12;fontStyle=0;aspect=fixed;pointerEvents=1;shape=mxgraph.aws4.shield_shield_advanced;" vertex="1" parent="1">
          <mxGeometry x="250" y="43.5" width="50.71" height="56.5" as="geometry" />
        </mxCell>
        <mxCell id="SFy-r6-ZwJ_fSL5g5nnQ-35" value="WAF" style="points=[[0,0,0],[0.25,0,0],[0.5,0,0],[0.75,0,0],[1,0,0],[0,1,0],[0.25,1,0],[0.5,1,0],[0.75,1,0],[1,1,0],[0,0.25,0],[0,0.5,0],[0,0.75,0],[1,0.25,0],[1,0.5,0],[1,0.75,0]];outlineConnect=0;fontColor=#232F3E;gradientColor=#F54749;gradientDirection=north;fillColor=#C7131F;strokeColor=#ffffff;dashed=0;verticalLabelPosition=bottom;verticalAlign=top;align=center;html=1;fontSize=12;fontStyle=0;aspect=fixed;shape=mxgraph.aws4.resourceIcon;resIcon=mxgraph.aws4.waf;" vertex="1" parent="1">
          <mxGeometry x="335" y="43.5" width="56.5" height="56.5" as="geometry" />
        </mxCell>
        <mxCell id="SFy-r6-ZwJ_fSL5g5nnQ-36" value="Anti-DDOS" style="outlineConnect=0;fontColor=#232F3E;gradientColor=none;fillColor=#FF5252;strokeColor=none;dashed=0;verticalLabelPosition=bottom;verticalAlign=top;align=center;html=1;fontSize=12;fontStyle=0;aspect=fixed;pointerEvents=1;shape=mxgraph.aws4.shield_shield_advanced;" vertex="1" parent="1">
          <mxGeometry x="250" y="43.5" width="50.71" height="56.5" as="geometry" />
        </mxCell>
        <mxCell id="SFy-r6-ZwJ_fSL5g5nnQ-44" value="" style="edgeStyle=orthogonalEdgeStyle;rounded=0;orthogonalLoop=1;jettySize=auto;html=1;" edge="1" parent="1" source="SFy-r6-ZwJ_fSL5g5nnQ-41" target="SFy-r6-ZwJ_fSL5g5nnQ-23">
          <mxGeometry relative="1" as="geometry" />
        </mxCell>
        <mxCell id="SFy-r6-ZwJ_fSL5g5nnQ-41" value="WAF" style="points=[[0,0,0],[0.25,0,0],[0.5,0,0],[0.75,0,0],[1,0,0],[0,1,0],[0.25,1,0],[0.5,1,0],[0.75,1,0],[1,1,0],[0,0.25,0],[0,0.5,0],[0,0.75,0],[1,0.25,0],[1,0.5,0],[1,0.75,0]];outlineConnect=0;fontColor=#232F3E;gradientColor=#F54749;gradientDirection=north;fillColor=#C7131F;strokeColor=#ffffff;dashed=0;verticalLabelPosition=bottom;verticalAlign=top;align=center;html=1;fontSize=12;fontStyle=0;aspect=fixed;shape=mxgraph.aws4.resourceIcon;resIcon=mxgraph.aws4.waf;" vertex="1" parent="1">
          <mxGeometry x="335" y="43.5" width="56.5" height="56.5" as="geometry" />
        </mxCell>
        <mxCell id="SFy-r6-ZwJ_fSL5g5nnQ-43" value="" style="edgeStyle=orthogonalEdgeStyle;rounded=0;orthogonalLoop=1;jettySize=auto;html=1;" edge="1" parent="1" source="SFy-r6-ZwJ_fSL5g5nnQ-42" target="SFy-r6-ZwJ_fSL5g5nnQ-41">
          <mxGeometry relative="1" as="geometry" />
        </mxCell>
        <mxCell id="SFy-r6-ZwJ_fSL5g5nnQ-42" value="Anti-DDOS" style="outlineConnect=0;fontColor=#232F3E;gradientColor=none;fillColor=#FF5252;strokeColor=none;dashed=0;verticalLabelPosition=bottom;verticalAlign=top;align=center;html=1;fontSize=12;fontStyle=0;aspect=fixed;pointerEvents=1;shape=mxgraph.aws4.shield_shield_advanced;" vertex="1" parent="1">
          <mxGeometry x="250" y="43.5" width="50.71" height="56.5" as="geometry" />
        </mxCell>
        <mxCell id="SFy-r6-ZwJ_fSL5g5nnQ-66" style="edgeStyle=orthogonalEdgeStyle;rounded=0;orthogonalLoop=1;jettySize=auto;html=1;entryX=0.5;entryY=0;entryDx=0;entryDy=0;" edge="1" parent="1" source="SFy-r6-ZwJ_fSL5g5nnQ-49" target="SFy-r6-ZwJ_fSL5g5nnQ-55">
          <mxGeometry relative="1" as="geometry" />
        </mxCell>
        <mxCell id="SFy-r6-ZwJ_fSL5g5nnQ-70" style="edgeStyle=orthogonalEdgeStyle;rounded=0;orthogonalLoop=1;jettySize=auto;html=1;entryX=0.5;entryY=0;entryDx=0;entryDy=0;" edge="1" parent="1" source="SFy-r6-ZwJ_fSL5g5nnQ-49" target="SFy-r6-ZwJ_fSL5g5nnQ-67">
          <mxGeometry relative="1" as="geometry" />
        </mxCell>
        <mxCell id="SFy-r6-ZwJ_fSL5g5nnQ-49" value="Load Balance" style="outlineConnect=0;fontColor=#232F3E;gradientColor=none;fillColor=#A166FF;strokeColor=none;dashed=0;verticalLabelPosition=bottom;verticalAlign=top;align=center;html=1;fontSize=12;fontStyle=0;aspect=fixed;pointerEvents=1;shape=mxgraph.aws4.network_load_balancer;shadow=1;direction=south;" vertex="1" parent="1">
          <mxGeometry x="420" y="210" width="61.75" height="61.75" as="geometry" />
        </mxCell>
        <mxCell id="SFy-r6-ZwJ_fSL5g5nnQ-55" value="Prod 1" style="fillColor=none;strokeColor=#000000;verticalAlign=top;fontStyle=0;fontColor=#DD3522;shadow=1;" vertex="1" parent="1">
          <mxGeometry x="288.5" y="310" width="131" height="280" as="geometry" />
        </mxCell>
        <mxCell id="SFy-r6-ZwJ_fSL5g5nnQ-67" value="Prod 2" style="fillColor=none;strokeColor=#000000;verticalAlign=top;fontStyle=0;fontColor=#DD3522;shadow=1;" vertex="1" parent="1">
          <mxGeometry x="494.5" y="310" width="131" height="280" as="geometry" />
        </mxCell>
        <mxCell id="SFy-r6-ZwJ_fSL5g5nnQ-82" value="" style="pointerEvents=1;shadow=0;dashed=0;html=1;strokeColor=none;fillColor=#505050;labelPosition=center;verticalLabelPosition=bottom;verticalAlign=top;outlineConnect=0;align=center;shape=mxgraph.office.servers.cluster_server;" vertex="1" parent="1">
          <mxGeometry x="329" y="340" width="49" height="59" as="geometry" />
        </mxCell>
        <mxCell id="SFy-r6-ZwJ_fSL5g5nnQ-84" value="" style="pointerEvents=1;shadow=0;dashed=0;html=1;strokeColor=none;fillColor=#505050;labelPosition=center;verticalLabelPosition=bottom;verticalAlign=top;outlineConnect=0;align=center;shape=mxgraph.office.servers.cluster_server;" vertex="1" parent="1">
          <mxGeometry x="329" y="520" width="49" height="59" as="geometry" />
        </mxCell>
        <mxCell id="SFy-r6-ZwJ_fSL5g5nnQ-85" value="" style="pointerEvents=1;shadow=0;dashed=0;html=1;strokeColor=none;fillColor=#505050;labelPosition=center;verticalLabelPosition=bottom;verticalAlign=top;outlineConnect=0;align=center;shape=mxgraph.office.servers.cluster_server;" vertex="1" parent="1">
          <mxGeometry x="329" y="520" width="49" height="59" as="geometry" />
        </mxCell>
        <mxCell id="SFy-r6-ZwJ_fSL5g5nnQ-87" value="" style="pointerEvents=1;shadow=0;dashed=0;html=1;strokeColor=none;fillColor=#505050;labelPosition=center;verticalLabelPosition=bottom;verticalAlign=top;outlineConnect=0;align=center;shape=mxgraph.office.servers.cluster_server;" vertex="1" parent="1">
          <mxGeometry x="540" y="340" width="49" height="59" as="geometry" />
        </mxCell>
        <mxCell id="SFy-r6-ZwJ_fSL5g5nnQ-88" value="" style="pointerEvents=1;shadow=0;dashed=0;html=1;strokeColor=none;fillColor=#505050;labelPosition=center;verticalLabelPosition=bottom;verticalAlign=top;outlineConnect=0;align=center;shape=mxgraph.office.servers.cluster_server;" vertex="1" parent="1">
          <mxGeometry x="540" y="520" width="49" height="59" as="geometry" />
        </mxCell>
        <mxCell id="SFy-r6-ZwJ_fSL5g5nnQ-91" value="Firewall" style="points=[[0,0,0],[0.25,0,0],[0.5,0,0],[0.75,0,0],[1,0,0],[0,1,0],[0.25,1,0],[0.5,1,0],[0.75,1,0],[1,1,0],[0,0.25,0],[0,0.5,0],[0,0.75,0],[1,0.25,0],[1,0.5,0],[1,0.75,0]];outlineConnect=0;fontColor=#232F3E;gradientColor=#F54749;gradientDirection=north;fillColor=#C7131F;strokeColor=#ffffff;dashed=0;verticalLabelPosition=bottom;verticalAlign=top;align=center;html=1;fontSize=12;fontStyle=0;aspect=fixed;shape=mxgraph.aws4.resourceIcon;resIcon=mxgraph.aws4.network_firewall;shadow=1;" vertex="1" parent="1">
          <mxGeometry x="430.75" y="377.5" width="45" height="45" as="geometry" />
        </mxCell>
        <mxCell id="SFy-r6-ZwJ_fSL5g5nnQ-99" style="endArrow=none;dashed=1;html=1;shape=link;strokeColor=#009900;" edge="1" parent="1" source="SFy-r6-ZwJ_fSL5g5nnQ-93" target="SFy-r6-ZwJ_fSL5g5nnQ-98">
          <mxGeometry relative="1" as="geometry" />
        </mxCell>
        <mxCell id="SFy-r6-ZwJ_fSL5g5nnQ-103" value="Site to Site VPN" style="edgeLabel;html=1;align=center;verticalAlign=middle;resizable=0;points=[];" vertex="1" connectable="0" parent="SFy-r6-ZwJ_fSL5g5nnQ-99">
          <mxGeometry x="0.1787" y="-1" relative="1" as="geometry">
            <mxPoint x="-62" as="offset" />
          </mxGeometry>
        </mxCell>
        <mxCell id="SFy-r6-ZwJ_fSL5g5nnQ-126" value="" style="edgeStyle=orthogonalEdgeStyle;rounded=0;orthogonalLoop=1;jettySize=auto;html=1;strokeColor=#000000;" edge="1" parent="1" source="SFy-r6-ZwJ_fSL5g5nnQ-93" target="SFy-r6-ZwJ_fSL5g5nnQ-121">
          <mxGeometry relative="1" as="geometry" />
        </mxCell>
        <mxCell id="SFy-r6-ZwJ_fSL5g5nnQ-93" value="VPN GW" style="outlineConnect=0;dashed=0;verticalLabelPosition=bottom;verticalAlign=top;align=center;html=1;shape=mxgraph.aws3.vpn_gateway;fillColor=#F58536;gradientColor=none;shadow=1;strokeColor=#000000;" vertex="1" parent="1">
          <mxGeometry x="432" y="474" width="46" height="46" as="geometry" />
        </mxCell>
        <mxCell id="SFy-r6-ZwJ_fSL5g5nnQ-127" style="endArrow=none;dashed=1;html=1;strokeColor=#009900;" edge="1" parent="1" source="SFy-r6-ZwJ_fSL5g5nnQ-96" target="SFy-r6-ZwJ_fSL5g5nnQ-121">
          <mxGeometry relative="1" as="geometry" />
        </mxCell>
        <mxCell id="SFy-r6-ZwJ_fSL5g5nnQ-96" value="Local IDC" style="shape=image;html=1;verticalAlign=top;verticalLabelPosition=bottom;labelBackgroundColor=#ffffff;imageAspect=0;aspect=fixed;image=https://cdn2.iconfinder.com/data/icons/mini-icon-set-map-location/91/Location_22-128.png;shadow=1;strokeColor=#000000;" vertex="1" parent="1">
          <mxGeometry x="39" y="610" width="60" height="60" as="geometry" />
        </mxCell>
        <mxCell id="SFy-r6-ZwJ_fSL5g5nnQ-102" value="" style="edgeStyle=orthogonalEdgeStyle;rounded=0;orthogonalLoop=1;jettySize=auto;html=1;strokeColor=#000000;" edge="1" parent="1" source="SFy-r6-ZwJ_fSL5g5nnQ-98" target="SFy-r6-ZwJ_fSL5g5nnQ-96">
          <mxGeometry relative="1" as="geometry" />
        </mxCell>
        <mxCell id="SFy-r6-ZwJ_fSL5g5nnQ-98" value="VPN Gateway" style="outlineConnect=0;fontColor=#232F3E;gradientColor=none;strokeColor=#232F3E;fillColor=#ffffff;dashed=0;verticalLabelPosition=bottom;verticalAlign=top;align=center;html=1;fontSize=12;fontStyle=0;aspect=fixed;shape=mxgraph.aws4.resourceIcon;resIcon=mxgraph.aws4.vpn_gateway;shadow=1;" vertex="1" parent="1">
          <mxGeometry x="44" y="474" width="50" height="50" as="geometry" />
        </mxCell>
        <mxCell id="SFy-r6-ZwJ_fSL5g5nnQ-117" value="" style="edgeStyle=orthogonalEdgeStyle;rounded=0;orthogonalLoop=1;jettySize=auto;html=1;strokeColor=#000000;" edge="1" parent="1" source="SFy-r6-ZwJ_fSL5g5nnQ-106">
          <mxGeometry relative="1" as="geometry">
            <mxPoint x="455.5294117647061" y="377.5" as="targetPoint" />
          </mxGeometry>
        </mxCell>
        <mxCell id="SFy-r6-ZwJ_fSL5g5nnQ-106" value="" style="outlineConnect=0;dashed=0;verticalLabelPosition=bottom;verticalAlign=top;align=center;html=1;shape=mxgraph.aws3.virtual_private_cloud;fillColor=#F58534;gradientColor=none;shadow=1;strokeColor=#000000;" vertex="1" parent="1">
          <mxGeometry x="434.12" y="320" width="41.75" height="20" as="geometry" />
        </mxCell>
        <mxCell id="SFy-r6-ZwJ_fSL5g5nnQ-118" value="" style="edgeStyle=orthogonalEdgeStyle;rounded=0;orthogonalLoop=1;jettySize=auto;html=1;strokeColor=#000000;" edge="1" parent="1" target="SFy-r6-ZwJ_fSL5g5nnQ-93">
          <mxGeometry relative="1" as="geometry">
            <mxPoint x="455.5294117647061" y="422.5" as="sourcePoint" />
          </mxGeometry>
        </mxCell>
        <mxCell id="SFy-r6-ZwJ_fSL5g5nnQ-121" value="SOC/Security Center" style="shape=image;html=1;verticalAlign=top;verticalLabelPosition=bottom;labelBackgroundColor=#ffffff;imageAspect=0;aspect=fixed;image=https://cdn4.iconfinder.com/data/icons/online-marketing-hand-drawn-vol-4/52/services__support__business__help__assistance__call__center-128.png;shadow=1;strokeColor=#000000;" vertex="1" parent="1">
          <mxGeometry x="426.75" y="615" width="50" height="50" as="geometry" />
        </mxCell>
      </root>
    </mxGraphModel>
  </diagram>
</mxfile>
